<?xml version="1.0" standalone="no"?>
<!DOCTYPE svg PUBLIC "-//W3C//DTD SVG 20010904//EN"
 "http://www.w3.org/TR/2001/REC-SVG-20010904/DTD/svg10.dtd">
<svg version="1.0" xmlns="http://www.w3.org/2000/svg"
 width="513.000000pt" height="513.000000pt" viewBox="0 0 513.000000 513.000000"
 preserveAspectRatio="xMidYMid meet">
<metadata>
Created by potrace 1.14, written by Peter Selinger 2001-2017
</metadata>
<g transform="translate(0.000000,513.000000) scale(0.100000,-0.100000)"
fill="#000000" stroke="none">
<path d="M2037 5114 c-194 -34 -358 -117 -483 -242 -61 -61 -133 -164 -163
-234 l-19 -44 -79 -12 c-261 -40 -482 -211 -601 -462 -61 -129 -88 -309 -67
-435 10 -57 28 -130 35 -145 6 -11 -3 -30 -26 -60 -63 -82 -130 -231 -149
-330 -13 -69 -14 -236 -2 -300 l12 -64 155 3 c85 1 157 4 159 7 2 2 0 9 -5 16
-36 49 -49 185 -28 288 28 132 90 221 218 308 45 31 47 34 33 55 -41 64 -87
159 -102 215 -46 163 19 360 162 496 47 44 160 101 232 117 52 11 251 7 271
-6 6 -3 11 -1 11 4 1 6 2 14 3 19 2 4 6 30 11 57 41 249 210 413 471 459 192
34 406 -20 516 -130 24 -24 63 -80 87 -124 23 -44 45 -80 48 -80 3 0 42 19 87
41 102 52 158 69 246 73 179 9 372 -65 490 -186 23 -24 57 -75 76 -114 58
-119 52 -222 -25 -426 -18 -49 -25 -78 -17 -79 6 0 63 -2 126 -5 217 -8 357
-78 484 -243 161 -209 204 -485 111 -722 l-23 -57 92 -2 c87 -2 204 -2 217 -1
6 1 35 102 45 161 10 60 12 212 2 285 -21 164 -96 354 -192 489 -111 156 -289
290 -456 345 l-35 11 2 83 c4 213 -102 418 -290 560 -124 94 -230 142 -391
176 -112 25 -264 25 -365 1 l-74 -18 -41 43 c-82 86 -244 170 -388 201 -98 21
-284 25 -381 8z"/>
<path d="M3005 4025 c-145 -37 -183 -235 -63 -327 40 -31 69 -40 118 -40 134
2 223 140 169 262 -41 91 -124 130 -224 105z"/>
<path d="M1608 3800 c-156 -46 -190 -249 -56 -337 34 -23 53 -28 104 -28 53 0
69 4 106 30 81 57 105 159 57 245 -41 72 -135 113 -211 90z"/>
<path d="M2414 3437 c-77 -29 -124 -98 -124 -182 0 -131 136 -220 258 -169
142 59 158 253 26 334 -37 24 -119 32 -160 17z"/>
<path d="M652 2717 l-44 -11 7 -63 c4 -43 3 -63 -4 -63 -6 0 0 -17 14 -38 30
-46 8 54 305 -1387 l236 -1150 393 -3 393 -2 -6 37 c-3 21 -54 629 -113 1351
l-108 1312 -398 0 c-230 0 -406 4 -416 9 -28 15 -211 21 -259 8z"/>
<path d="M3823 2702 l-473 -2 0 -54 c0 -30 -25 -630 -55 -1332 -30 -703 -55
-1286 -55 -1296 0 -17 21 -18 348 -18 l347 0 209 1013 c115 556 229 1109 253
1227 30 146 50 224 64 243 14 19 17 32 11 40 -7 8 -5 38 5 90 9 42 14 79 11
82 -8 8 -190 10 -665 7z"/>
<path d="M1997 2638 c3 -35 53 -641 112 -1348 l106 -1285 377 -3 376 -2 6 62
c3 35 28 607 56 1273 27 666 52 1245 56 1288 l5 77 -549 0 -550 0 5 -62z"/>
</g>
</svg>
